<svg id="grafik" xmlns="http://www.w3.org/2000/svg" viewBox="0 0 396.85 396.85"><defs><style>.cls-1{fill:#1d1d1b;}</style></defs><path class="cls-1" d="M297.64,226.77c-109.37,0-198.43,89-198.43,198.42s89.06,198.43,198.43,198.43,198.42-89,198.42-198.43S407,226.77,297.64,226.77Zm0,384.09C195.28,610.86,112,527.57,112,425.19s83.3-185.68,185.66-185.68S483.3,322.78,483.3,425.19,400,610.86,297.64,610.86Z" transform="translate(-99.21 -226.77)"/><path class="cls-1" d="M432.34,367.72a4.21,4.21,0,0,0-2.48-.78H161.74a4.16,4.16,0,0,0-3.44,1.75,4.27,4.27,0,0,0-.82,2.49v97.93a4.27,4.27,0,0,0,4.26,4.24l33.73,0a4.11,4.11,0,0,0,3.38-1.7,4.17,4.17,0,0,0,.78-2.45,23.64,23.64,0,0,1,9.71-20.07,23.83,23.83,0,0,1,6.58-3.32,22.94,22.94,0,0,1,7.12-1.13,23.39,23.39,0,0,1,19,9.74,24.48,24.48,0,0,1,3.34,6.56,25.65,25.65,0,0,1,1.1,7.13c-.05,1.6.06,3.21,1.74,4.47a4,4,0,0,0,2.39.79h87.84a3.94,3.94,0,0,0,1.28-.2,3.89,3.89,0,0,0,2.08-1.52,4,4,0,0,0,.8-2.45A23.51,23.51,0,0,1,347,454.42a24.8,24.8,0,0,1,5.28-5.3,23.5,23.5,0,0,1,13.7-4.44,23.48,23.48,0,0,1,13.72,4.44,24,24,0,0,1,5.29,5.3A23.55,23.55,0,0,1,388.3,461a22.93,22.93,0,0,1,1.11,7.13c-.07,1.58.06,3.19,1.73,4.45a4,4,0,0,0,2.42.79h36.3a4.29,4.29,0,0,0,3.46-1.76,4.23,4.23,0,0,0,.8-2.48V371.18A4.2,4.2,0,0,0,432.34,367.72ZM204.46,417.11a2.14,2.14,0,0,1-2.15,2.13h-34a2,2,0,0,1-1.24-.41,1.91,1.91,0,0,1-.88-1.72V382a2.16,2.16,0,0,1,.41-1.24,2.05,2.05,0,0,1,1.71-.88h34a2.21,2.21,0,0,1,1.26.39,2.09,2.09,0,0,1,.89,1.73Zm46.82,0a2,2,0,0,1-.9,1.72,1.91,1.91,0,0,1-1.24.41H215.08a2,2,0,0,1-1.23-.41,2.11,2.11,0,0,1-.9-1.72V382a2.29,2.29,0,0,1,.39-1.24,2.09,2.09,0,0,1,1.74-.88h34.06a2.12,2.12,0,0,1,1.24.39,2.16,2.16,0,0,1,.9,1.73Zm45.69,0a2.13,2.13,0,0,1-.88,1.72,2.17,2.17,0,0,1-1.27.41H260.74a2,2,0,0,1-1.21-.41,1.94,1.94,0,0,1-.89-1.72V382a2.14,2.14,0,0,1,.39-1.24,2.06,2.06,0,0,1,1.71-.88h34.08a2.38,2.38,0,0,1,1.27.39A2.13,2.13,0,0,1,297,382Zm46.8,0a2,2,0,0,1-.87,1.72,2.13,2.13,0,0,1-1.25.41h-34a2,2,0,0,1-1.26-.41,2.06,2.06,0,0,1-.9-1.72V382a2.16,2.16,0,0,1,.41-1.24,2.07,2.07,0,0,1,1.75-.88h34a2.2,2.2,0,0,1,1.25.39,2,2,0,0,1,.87,1.73Zm46.81,0a2,2,0,0,1-.85,1.72,2.09,2.09,0,0,1-1.25.41H354.43a2,2,0,0,1-1.24-.41,2,2,0,0,1-.91-1.72V382a2.11,2.11,0,0,1,.42-1.24,2,2,0,0,1,1.73-.88h34.05a2.2,2.2,0,0,1,1.25.39,2,2,0,0,1,.85,1.73Zm34.92,45.57a2.09,2.09,0,0,1-2.12,2.09H401.25a1.87,1.87,0,0,1-1.25-.35,2.07,2.07,0,0,1-.87-1.74V382a2,2,0,0,1,.42-1.24,2,2,0,0,1,1.7-.88h22.13a2.18,2.18,0,0,1,1.23.39,2.09,2.09,0,0,1,.89,1.73Z" transform="translate(-99.21 -226.77)"/><path class="cls-1" d="M376.43,454.42a17.31,17.31,0,0,0-4.75-2.42,17.49,17.49,0,0,0-5.12-.77,17,17,0,0,0-9.88,3.19,15.63,15.63,0,0,0-3.79,3.82,16.38,16.38,0,0,0-3.2,9.87,16.81,16.81,0,0,0,3.17,9.84,15.93,15.93,0,0,0,3.82,3.82,16.85,16.85,0,0,0,19.77,0,16,16,0,0,0,3.79-3.82,16.23,16.23,0,0,0,2.42-4.72,17.44,17.44,0,0,0,.78-5.12,16.88,16.88,0,0,0-3.2-9.87A16.07,16.07,0,0,0,376.43,454.42Z" transform="translate(-99.21 -226.77)"/><path class="cls-1" d="M233,454.42A17.72,17.72,0,0,0,228.2,452a17.54,17.54,0,0,0-5.12-.77,16.79,16.79,0,0,0-13.66,7A17.88,17.88,0,0,0,207,463a17.35,17.35,0,0,0-.78,5.16,16.7,16.7,0,0,0,3.21,9.84,16.32,16.32,0,0,0,3.78,3.82,16.81,16.81,0,0,0,26.74-13.66,16.89,16.89,0,0,0-7-13.69Z" transform="translate(-99.21 -226.77)"/></svg>