<?xml version="1.0" encoding="utf-8"?>
<!-- Generator: Adobe Illustrator 26.5.0, SVG Export Plug-In . SVG Version: 6.00 Build 0)  -->
<svg version="1.1" id="grafik" xmlns="http://www.w3.org/2000/svg" xmlns:xlink="http://www.w3.org/1999/xlink" x="0px" y="0px"
	 viewBox="0 0 396.9 396.9" style="enable-background:new 0 0 396.9 396.9;" xml:space="preserve">
<style type="text/css">
	.st0{fill:#1D1D1B;}
</style>
<path class="st0" d="M333.1,140.9c-0.7-0.5-1.6-0.8-2.5-0.8H62.5c-1.4,0-2.6,0.6-3.4,1.8c-0.5,0.7-0.8,1.6-0.8,2.5v97.9
	c0,2.3,1.9,4.2,4.3,4.2h33.7c1.3,0,2.6-0.6,3.4-1.7c0.5-0.7,0.8-1.6,0.8-2.5c-0.3-7.9,3.3-15.4,9.7-20.1c2-1.4,4.2-2.6,6.6-3.3
	c2.3-0.7,4.7-1.1,7.1-1.1c7.5,0,14.6,3.6,19,9.7c1.4,2,2.6,4.2,3.3,6.6c0.7,2.3,1.1,4.7,1.1,7.1c0,1.6,0.1,3.2,1.7,4.5
	c0.7,0.5,1.5,0.8,2.4,0.8h87.8c0.4,0,0.9-0.1,1.3-0.2c0.8-0.3,1.6-0.8,2.1-1.5c0.5-0.7,0.8-1.6,0.8-2.5c-0.2-5.3,1.3-10.5,4.4-14.8
	c1.5-2,3.3-3.8,5.3-5.3c4-2.9,8.8-4.4,13.7-4.4c4.9,0,9.7,1.6,13.7,4.4c2,1.5,3.8,3.3,5.3,5.3c1.4,2,2.6,4.2,3.3,6.6
	c0.7,2.3,1.1,4.7,1.1,7.1c-0.1,1.6,0.1,3.2,1.7,4.5c0.7,0.5,1.5,0.8,2.4,0.8h36.3c1.4,0,2.7-0.7,3.5-1.8c0.5-0.7,0.8-1.6,0.8-2.5
	v-98C334.9,143,334.3,141.7,333.1,140.9z M105.3,190.3c0,1.2-1,2.1-2.1,2.1c0,0,0,0,0,0h-34c-0.4,0-0.9-0.1-1.2-0.4
	c-0.6-0.4-0.9-1-0.9-1.7v-35.1c0-0.4,0.1-0.9,0.4-1.2c0.4-0.6,1-0.9,1.7-0.9h34c0.4,0,0.9,0.1,1.3,0.4c0.6,0.4,0.9,1,0.9,1.7V190.3z
	 M152.1,190.3c0,0.7-0.3,1.3-0.9,1.7c-0.4,0.3-0.8,0.4-1.2,0.4h-34.1c-0.4,0-0.9-0.1-1.2-0.4c-0.6-0.4-0.9-1-0.9-1.7v-35.1
	c0-0.4,0.1-0.9,0.4-1.2c0.4-0.6,1.1-0.9,1.7-0.9h34.1c0.4,0,0.9,0.1,1.2,0.4c0.6,0.4,0.9,1,0.9,1.7V190.3z M197.8,190.3
	c0,0.7-0.3,1.3-0.9,1.7c-0.4,0.3-0.8,0.4-1.3,0.4h-34.1c-0.4,0-0.9-0.1-1.2-0.4c-0.6-0.4-0.9-1-0.9-1.7v-35.1c0-0.4,0.1-0.9,0.4-1.2
	c0.4-0.6,1-0.9,1.7-0.9h34.1c0.5,0,0.9,0.1,1.3,0.4c0.6,0.4,0.9,1,0.9,1.7L197.8,190.3z M244.6,190.3c0,0.7-0.3,1.3-0.9,1.7
	c-0.4,0.3-0.8,0.4-1.2,0.4h-34c-0.5,0-0.9-0.1-1.3-0.4c-0.6-0.4-0.9-1-0.9-1.7v-35.1c0-0.4,0.1-0.9,0.4-1.2c0.4-0.6,1.1-0.9,1.8-0.9
	h34c0.4,0,0.9,0.1,1.2,0.4c0.6,0.4,0.9,1,0.9,1.7V190.3z M291.4,190.3c0,0.7-0.3,1.3-0.9,1.7c-0.4,0.3-0.8,0.4-1.2,0.4h-34
	c-0.4,0-0.9-0.1-1.2-0.4c-0.6-0.4-0.9-1-0.9-1.7v-35.1c0-0.4,0.2-0.9,0.4-1.2c0.4-0.6,1-0.9,1.7-0.9h34c0.4,0,0.9,0.1,1.2,0.4
	c0.6,0.4,0.9,1,0.9,1.7L291.4,190.3z M326.3,235.9c0,1.2-0.9,2.1-2.1,2.1c0,0,0,0,0,0H302c-0.4,0-0.9-0.1-1.2-0.4
	c-0.6-0.4-0.9-1.1-0.9-1.7v-80.7c0-0.4,0.1-0.9,0.4-1.2c0.4-0.6,1-0.9,1.7-0.9h22.1c0.4,0,0.9,0.1,1.2,0.4c0.6,0.4,0.9,1,0.9,1.7
	L326.3,235.9z"/>
<path class="st0" d="M277.2,227.7c-1.4-1-3.1-1.9-4.8-2.4c-1.7-0.5-3.4-0.8-5.1-0.8c-3.5,0-7,1.1-9.9,3.2c-1.5,1-2.8,2.3-3.8,3.8
	c-2.1,2.9-3.2,6.3-3.2,9.9c0,3.5,1.1,7,3.2,9.8c1,1.5,2.3,2.8,3.8,3.8c5.9,4.3,13.9,4.3,19.8,0c1.5-1.1,2.8-2.3,3.8-3.8
	c1.1-1.4,1.9-3,2.4-4.7c0.5-1.7,0.8-3.4,0.8-5.1c0-3.5-1.1-7-3.2-9.9C280,230,278.7,228.7,277.2,227.7z"/>
<path class="st0" d="M133.8,227.7c-1.5-1-3.1-1.9-4.8-2.4c-1.7-0.5-3.4-0.8-5.1-0.8c-5.4,0-10.5,2.6-13.7,7c-1,1.5-1.9,3.1-2.4,4.8
	c-0.5,1.7-0.8,3.4-0.8,5.2c0,3.5,1.1,7,3.2,9.8c1,1.5,2.3,2.8,3.8,3.8c7.5,5.5,18,3.9,23.5-3.6c2.1-2.9,3.3-6.4,3.2-10
	C140.7,236,138.1,230.9,133.8,227.7L133.8,227.7z"/>
</svg>
